<svg width="1789" height="719" viewBox="0 0 1789 719" fill="none" xmlns="http://www.w3.org/2000/svg">
<path d="M465.349 247.994C597.276 244.097 678.186 330.069 679.15 458.604C679.265 474.446 681.308 505.618 658.771 506.231C625.8 507.127 592.743 506.785 559.744 506.78L369.804 506.457C371.92 516.792 374.079 526.181 377.533 536.229C407.611 623.823 522.714 618.892 594.326 593.79C609.912 588.519 623.814 579.438 638.882 573.194C649.259 568.891 654.065 576.776 656.498 585.373L659.822 621.449C661.045 634.88 665.722 664.885 655.72 673.782C620.231 703.277 568.062 712.243 524.499 716.459C379.85 729.959 258.951 655.985 249.949 500.837C241.943 362.866 316.599 256.369 460.528 248.184C462.14 248.105 463.752 248.042 465.349 247.994ZM564.089 423.313C552.504 358.046 522.944 329.274 453.865 335.775C403.12 345.034 382.152 374.97 371.157 423.146L483.483 423.177L564.089 423.313Z" fill="#FF6B6B"/>
<path d="M1178.59 148.896C1215.79 150.919 1235.19 169.726 1250.75 202.537C1230.32 204.453 1210.43 210.174 1192.09 219.406C1111.96 260.42 1050.18 385.465 1024.03 467.783C1030.23 476.769 1035.94 486.099 1041.82 495.326C1081.35 557.825 1125.34 617.748 1163.45 681.11C1181.37 718.431 1124.39 706.717 1104.63 707.969C1087.9 707.523 1063.58 710.43 1047.73 706.961C1026.45 702.313 1006.73 660.282 996.468 642.754C978.81 612.185 960.749 581.843 942.299 551.737C916.437 591.723 892.806 641.222 867.779 682.471C858.986 696.974 855 703.68 838.838 707.926C808.99 709.537 777.674 707.71 747.754 708.357C732.37 708.703 715.244 699.363 725.548 682.706C769.068 612.297 816.905 544.624 859.85 473.774C820.676 409.759 774.004 348.747 734.557 284.808C725.634 270.332 736.917 258.316 752.403 258.093C764.837 257.915 777.127 257.673 789.619 258.185C828.62 260.991 853.906 244.946 877.681 283.658C897.743 316.351 916.538 354.623 938.744 384.694C944.659 376.057 950.142 363.509 955.006 353.781C997.461 268.861 1072.77 156.598 1178.59 148.896Z" fill="#FF6B6B"/>
<path d="M1626.1 135.915C1649.79 132.71 1648.69 154.041 1648.58 170.376C1648.37 199.892 1648.32 229.368 1647.38 258.877C1668.93 258.308 1739.92 253.154 1755.03 263.622C1759.32 266.586 1761.09 270.218 1761.97 275.251C1763.68 285.171 1763.54 327.644 1761.75 337.432C1760.86 342.305 1759.18 346.055 1756.47 350.16C1743.23 359.686 1667.95 355.817 1646.86 355.666L1646.94 484.97C1646.92 506.243 1645.64 528.446 1647.81 549.579C1648.85 559.686 1650.75 570.426 1655.24 579.637C1680.84 632.278 1754.44 588.194 1773.7 596.476C1777.25 598.006 1778.88 600.355 1780.11 603.895C1783.38 613.277 1789.02 664.803 1788.97 674.399C1788.92 679.271 1788.39 684.486 1786.06 688.847C1779.83 700.557 1757.69 704.889 1745.83 708.501C1724.59 713.927 1702.79 716.791 1680.87 717.007C1639.98 717.266 1596.71 707.724 1567.15 677.816C1518.1 628.169 1524.74 554.174 1524.84 490.581L1525.07 355.56C1509.54 355.84 1483.48 357.713 1468.25 353.614C1462.08 351.95 1457.54 336.966 1457.28 330.039C1454.28 251.106 1456.12 256.678 1526.35 258.431C1530.52 134.604 1505.01 144.164 1626.1 135.915Z" fill="#FF6B6B"/>
<path d="M95.1269 66.8387C133.493 60.8144 124.024 102.865 123.835 129.465L123.461 210.264L123.504 477.824C123.461 508.389 121.213 554.584 126.253 583.456C131.667 614.473 171.131 598.068 185.901 606.019C196.093 617.243 200.706 694.642 189.234 703.047C172.327 715.438 128.304 714.2 106.868 713.711C-14.9739 700.802 0.756042 603.603 0.910031 511.103L0.920132 335.579V175.856C0.969063 63.2351 -16.1454 74.01 95.1269 66.8387Z" fill="#FF6B6B"/>
<path d="M1280.05 258.128C1299.87 257.888 1377.18 249.611 1378.3 275.134C1380.05 314.584 1379.38 357.284 1379.38 397.049L1379.5 580.715C1379.53 613.25 1379.69 645.789 1379.34 678.32C1379.15 695.78 1377.33 704.616 1358.13 708.329C1342.34 708.156 1269.85 713.596 1261.17 699.723C1254.16 688.533 1255.93 643.124 1255.93 627.639L1256.02 525.341L1256.23 366.433C1256.26 339.036 1256.06 311.575 1256.55 284.191C1256.85 267.064 1264.71 261.149 1280.05 258.128Z" fill="#FF6B6B"/>
<path d="M1460.51 0C1470.73 0.0215873 1490.49 8.78605 1489.48 20.5741C1488.73 29.376 1470.64 44.785 1463.75 51.7922C1435.29 79.5952 1411.91 111.55 1386.44 141.913C1368.85 162.899 1346.23 206.783 1315.96 204.234C1291.44 202.171 1279.29 171.199 1264.48 154.497L1263.14 152.996C1245.69 133.709 1207.88 120.549 1236.94 93.4772C1270.19 62.4995 1296.59 101.791 1319.8 127.359C1354.39 94.4602 1417.06 18.0282 1460.51 0Z" fill="#FF6B6B"/>
</svg>
